<svg width="21" height="19" viewBox="0 0 21 19" fill="none" xmlns="http://www.w3.org/2000/svg">
    <path d="M18.3305 4.19331L18.7505 2.81631C18.828 2.56263 19.0032 2.35016 19.2374 2.22563C19.4717 2.10111 19.7458 2.07473 19.9995 2.15231C20.2531 2.22988 20.4656 2.40506 20.5901 2.63929C20.7147 2.87352 20.741 3.14763 20.6635 3.40131L19.4935 7.22631C19.4159 7.47979 19.2409 7.69212 19.0069 7.81663C18.7729 7.94114 18.499 7.96764 18.2455 7.89031L14.4205 6.72031C14.2922 6.68421 14.1725 6.62286 14.0683 6.53985C13.9641 6.45684 13.8776 6.35385 13.8137 6.23692C13.7499 6.11999 13.71 5.99149 13.6966 5.85896C13.6831 5.72642 13.6962 5.59253 13.7352 5.46514C13.7742 5.33775 13.8382 5.21944 13.9235 5.11714C14.0089 5.01484 14.1138 4.93063 14.2321 4.86944C14.3504 4.80825 14.4798 4.77132 14.6126 4.76083C14.7454 4.75033 14.879 4.76647 15.0055 4.80831L16.6775 5.31931C15.9383 4.1982 14.9073 3.29999 13.6955 2.72139C12.4837 2.1428 11.1371 1.90575 9.80052 2.03578C8.46399 2.16582 7.18826 2.658 6.11071 3.45932C5.03317 4.26065 4.19465 5.34075 3.68546 6.58331L3.42546 7.21631C3.37818 7.34126 3.30633 7.45548 3.21417 7.5522C3.12201 7.64893 3.0114 7.7262 2.88888 7.77947C2.76635 7.83273 2.63439 7.86091 2.5008 7.86232C2.3672 7.86374 2.23468 7.83837 2.11105 7.78772C1.98743 7.73706 1.8752 7.66215 1.78101 7.5674C1.68682 7.47265 1.61256 7.35999 1.56264 7.23607C1.51271 7.11215 1.48813 6.97947 1.49033 6.84589C1.49253 6.71231 1.52148 6.58052 1.57546 6.45831L1.83546 5.82531C2.48169 4.24859 3.54518 2.87766 4.91174 1.85973C6.2783 0.841799 7.89632 0.215312 9.59205 0.0475379C11.2878 -0.120237 12.9972 0.177038 14.5367 0.907442C16.0763 1.63785 17.3878 2.77379 18.3305 4.19331ZM2.80846 14.8063L2.48146 16.1173C2.45221 16.2473 2.39725 16.3702 2.31984 16.4787C2.24242 16.5871 2.1441 16.6791 2.03066 16.749C1.91722 16.8189 1.79094 16.8655 1.65925 16.8859C1.52755 16.9064 1.3931 16.9003 1.26379 16.868C1.13449 16.8358 1.01293 16.778 0.906276 16.6981C0.799618 16.6182 0.710008 16.5178 0.642713 16.4027C0.575417 16.2877 0.531794 16.1604 0.514407 16.0282C0.497019 15.8961 0.506219 15.7618 0.541464 15.6333L1.50846 11.7533C1.54109 11.6212 1.60033 11.4971 1.68257 11.3887C1.7648 11.2803 1.8683 11.1898 1.98672 11.1228C2.10514 11.0558 2.236 11.0136 2.37128 10.9989C2.50655 10.9842 2.64341 10.9973 2.77346 11.0373L6.60146 11.9913C6.85886 12.0555 7.08021 12.2193 7.21683 12.4467C7.35345 12.6741 7.39415 12.9464 7.32996 13.2038C7.26578 13.4612 7.10198 13.6826 6.87459 13.8192C6.6472 13.9558 6.37486 13.9965 6.11746 13.9323L4.33146 13.4873C5.09498 14.6562 6.17422 15.5846 7.44401 16.1649C8.71379 16.7453 10.1221 16.9537 11.5055 16.7661C12.889 16.5786 14.1909 16.0026 15.2603 15.1051C16.3297 14.2076 17.1228 13.0253 17.5475 11.6953C17.5874 11.5702 17.6516 11.4541 17.7363 11.3538C17.8211 11.2534 17.9248 11.1707 18.0416 11.1105C18.1583 11.0502 18.2857 11.0135 18.4166 11.0025C18.5475 10.9915 18.6793 11.0064 18.8045 11.0463C18.9296 11.0862 19.0457 11.1504 19.146 11.2352C19.2464 11.32 19.329 11.4237 19.3893 11.5404C19.4496 11.6571 19.4862 11.7846 19.4973 11.9155C19.5083 12.0464 19.4934 12.1782 19.4535 12.3033C19.0372 13.6093 18.3397 14.8081 17.4102 15.8156C16.4807 16.823 15.3418 17.6144 14.0735 18.1343C12.0973 18.9439 9.9041 19.0554 7.85602 18.4503C5.80794 17.8452 4.02743 16.5598 2.80846 14.8063Z"
          fill="url(#paint0_linear_158_945)"/>
    <defs>
        <linearGradient id="paint0_linear_158_945" x1="0.505859" y1="9.5177" x2="21.6265" y2="9.51459"
                        gradientUnits="userSpaceOnUse">
            <stop offset="0.00394562" stop-color="#FB818B"/>
            <stop offset="1" stop-color="#558CEF"/>
        </linearGradient>
    </defs>
</svg>
