<svg width="40" height="40" viewBox="0 0 40 40" fill="none" xmlns="http://www.w3.org/2000/svg">
    <path d="M31.5519 8.7395C29.427 7.78119 27.1492 7.07288 24.7674 6.67011C24.7461 6.66604 24.7242 6.66867 24.7045 6.67762C24.6849 6.68658 24.6685 6.70143 24.6576 6.72011C24.366 7.2326 24.041 7.90063 23.8132 8.4284C21.287 8.05096 18.7188 8.05096 16.1926 8.4284C15.9389 7.8435 15.6528 7.27318 15.3357 6.72011C15.3249 6.7012 15.3087 6.68601 15.2891 6.67659C15.2695 6.66716 15.2475 6.66393 15.226 6.66734C12.8455 7.0701 10.5678 7.77841 8.44145 8.73811C8.42316 8.74578 8.40765 8.75887 8.39701 8.77561C4.07491 15.1296 2.89022 21.3266 3.47215 27.4459C3.47377 27.4609 3.47842 27.4754 3.48582 27.4885C3.49322 27.5017 3.50322 27.5131 3.5152 27.5223C6.0379 29.3589 8.85163 30.7581 11.8386 31.6611C11.8594 31.6675 11.8817 31.6675 11.9025 31.661C11.9233 31.6546 11.9417 31.642 11.9552 31.6249C12.5969 30.7639 13.1691 29.8542 13.658 28.8986C13.6871 28.8431 13.6594 28.7764 13.601 28.7542C12.7038 28.4163 11.8345 28.0086 11.0011 27.5348C10.9861 27.5262 10.9735 27.5141 10.9644 27.4995C10.9552 27.4849 10.9499 27.4682 10.9488 27.451C10.9477 27.4338 10.9509 27.4166 10.9581 27.4009C10.9653 27.3852 10.9762 27.3716 10.99 27.3612C11.165 27.232 11.34 27.0973 11.5066 26.9626C11.5216 26.9505 11.5397 26.9428 11.5588 26.9403C11.578 26.9379 11.5974 26.9408 11.615 26.9487C17.069 29.3986 22.9757 29.3986 28.3659 26.9487C28.3835 26.9403 28.4031 26.937 28.4225 26.9392C28.4419 26.9414 28.4603 26.949 28.4756 26.9612C28.6423 27.0973 28.8159 27.232 28.9922 27.3612C29.0061 27.3714 29.0173 27.3848 29.0247 27.4004C29.0321 27.4159 29.0356 27.433 29.0348 27.4502C29.0339 27.4674 29.0289 27.4842 29.02 27.4989C29.0111 27.5137 28.9987 27.526 28.9839 27.5348C28.1534 28.0126 27.2895 28.4167 26.3826 28.7528C26.3687 28.7579 26.356 28.7658 26.3454 28.7762C26.3348 28.7865 26.3265 28.799 26.3211 28.8128C26.3157 28.8266 26.3133 28.8414 26.3141 28.8562C26.3149 28.871 26.3188 28.8855 26.3257 28.8986C26.8256 29.8528 27.3978 30.7611 28.027 31.6236C28.0401 31.6413 28.0583 31.6545 28.0792 31.6614C28.1001 31.6684 28.1226 31.6688 28.1437 31.6624C31.1357 30.762 33.954 29.3622 36.4795 27.5223C36.4918 27.5137 36.5022 27.5025 36.5098 27.4896C36.5175 27.4767 36.5223 27.4622 36.524 27.4473C37.2184 20.3725 35.3601 14.2255 31.5949 8.77839C31.5857 8.76068 31.5704 8.74688 31.5519 8.7395ZM14.4732 23.7196C12.8316 23.7196 11.4775 22.2349 11.4775 20.4142C11.4775 18.592 12.8052 17.1087 14.4732 17.1087C16.1537 17.1087 17.4954 18.6045 17.469 20.4142C17.469 22.2363 16.1412 23.7196 14.4732 23.7196ZM25.5493 23.7196C23.9063 23.7196 22.5535 22.2349 22.5535 20.4142C22.5535 18.592 23.8799 17.1087 25.5493 17.1087C27.2298 17.1087 28.5714 18.6045 28.545 20.4142C28.545 22.2363 27.2312 23.7196 25.5493 23.7196Z"
          fill="url(#paint0_linear_62_564)"/>
    <defs>
        <linearGradient id="paint0_linear_62_564" x1="3.33398" y1="19.2983" x2="38.1842" y2="19.2919"
                        gradientUnits="userSpaceOnUse">
            <stop offset="0.00394562" stop-color="#F44554"/>
            <stop offset="1" stop-color="#3271E1"/>
        </linearGradient>
    </defs>
</svg>
