<svg width="40" height="40" viewBox="0 0 40 40" fill="none" xmlns="http://www.w3.org/2000/svg">
    <path d="M35.4008 10.4476C34.2475 10.9585 33.0242 11.2937 31.7716 11.442C33.091 10.6525 34.0783 9.4103 34.5496 7.94678C33.3094 8.683 31.9524 9.20142 30.5372 9.47958C29.946 8.84895 29.2315 8.34646 28.4381 8.00326C27.6447 7.66005 26.7893 7.48345 25.9248 7.48438C22.4352 7.48438 19.6056 10.3132 19.6056 13.8036C19.6056 14.2984 19.6616 14.7812 19.7696 15.244C14.5176 14.9804 9.86161 12.4644 6.74481 8.64078C6.18284 9.60521 5.88754 10.7018 5.88921 11.818C5.88838 12.8584 6.14456 13.8829 6.63499 14.8004C7.12542 15.718 7.8349 16.5002 8.70041 17.0776C7.69709 17.0457 6.71588 16.7747 5.83841 16.2872C5.83761 16.3136 5.83761 16.3396 5.83761 16.3668C5.83761 19.4276 8.01561 21.9816 10.906 22.5628C9.97531 22.8147 8.99949 22.8517 8.05241 22.6708C8.85641 25.1808 11.19 27.0084 13.9552 27.0596C11.7168 28.8162 8.95262 29.769 6.10721 29.7648C5.59721 29.7648 5.09441 29.7352 4.59961 29.6764C7.48894 31.5329 10.8517 32.5182 14.286 32.5148C25.9092 32.5148 32.2652 22.8864 32.2652 14.5368C32.2652 14.2632 32.2588 13.99 32.2468 13.7184C33.4846 12.8247 34.5527 11.7171 35.4008 10.4476Z"
          fill="url(#paint0_linear_62_562)"/>
    <defs>
        <linearGradient id="paint0_linear_62_562" x1="4.59961" y1="20.1315" x2="36.8024" y2="20.1261"
                        gradientUnits="userSpaceOnUse">
            <stop offset="0.00394562" stop-color="#F44554"/>
            <stop offset="1" stop-color="#3271E1"/>
        </linearGradient>
    </defs>
</svg>
