<svg width="40" height="40" viewBox="0 0 40 40" fill="none" xmlns="http://www.w3.org/2000/svg">
    <path fill-rule="evenodd" clip-rule="evenodd"
          d="M19.9996 4.78516C11.3848 4.78516 4.40039 11.77 4.40039 20.386C4.40039 27.2784 8.86919 33.1256 15.0688 35.1872C15.8496 35.3316 16.1336 34.8512 16.1336 34.4364C16.1336 34.0668 16.12 33.0864 16.1132 31.7832C11.7736 32.7268 10.858 29.6916 10.858 29.6916C10.1484 27.8896 9.12559 27.4104 9.12559 27.4104C7.70919 26.4432 9.23319 26.462 9.23319 26.462C10.7988 26.5728 11.6228 28.0692 11.6228 28.0692C13.014 30.4532 15.2744 29.7632 16.1628 29.3664C16.304 28.3564 16.708 27.6704 17.1532 27.2796C13.6896 26.886 10.048 25.5476 10.048 19.57C10.048 17.8664 10.6556 16.4736 11.6532 15.3828C11.4936 14.99 10.9572 13.404 11.8064 11.2552C11.8064 11.2552 13.116 10.836 16.0968 12.8556C17.3404 12.508 18.6752 12.3344 20.002 12.3292C21.3268 12.3348 22.662 12.508 23.9072 12.8556C26.886 10.836 28.1936 11.2552 28.1936 11.2552C29.0448 13.404 28.5088 14.99 28.3488 15.3828C29.3488 16.4736 29.952 17.8664 29.952 19.57C29.952 25.5616 26.3052 26.8816 22.83 27.2664C23.3892 27.7484 23.8884 28.7024 23.8884 30.158C23.8884 32.2424 23.8696 33.9244 23.8696 34.436C23.8696 34.854 24.15 35.34 24.942 35.1852C31.1348 33.1192 35.6004 27.2764 35.6004 20.386C35.6004 11.77 28.616 4.78516 19.9996 4.78516Z"
          fill="url(#paint0_linear_62_565)"/>
    <defs>
        <linearGradient id="paint0_linear_62_565" x1="4.40039" y1="20.1603" x2="37.0202" y2="20.1557"
                        gradientUnits="userSpaceOnUse">
            <stop offset="0.00394562" stop-color="#F44554"/>
            <stop offset="1" stop-color="#3271E1"/>
        </linearGradient>
    </defs>
</svg>
