<svg width="22" height="19" viewBox="0 0 22 19" fill="none" xmlns="http://www.w3.org/2000/svg">
    <path d="M15.6825 0.240234C13.6671 0.240234 11.945 1.67677 10.9988 2.66716C10.0527 1.67677 8.3344 0.240234 6.31998 0.240234C2.84787 0.240234 0.423828 2.66043 0.423828 6.12485C0.423828 9.94216 3.4344 12.4095 6.3469 14.796C7.7219 15.9239 9.14498 17.0893 10.2363 18.3816C10.42 18.5979 10.6892 18.7229 10.9719 18.7229H11.0277C11.3113 18.7229 11.5796 18.597 11.7623 18.3816C12.8556 17.0893 14.2777 15.9229 15.6536 14.796C18.5652 12.4104 21.5777 9.94312 21.5777 6.12485C21.5777 2.66043 19.1536 0.240234 15.6825 0.240234Z"
          fill="url(#paint0_linear_199_612)"/>
    <defs>
        <linearGradient id="paint0_linear_199_612" x1="0.423828" y1="9.579" x2="22.5403" y2="9.57554"
                        gradientUnits="userSpaceOnUse">
            <stop offset="0.00394562" stop-color="#FB818B"/>
            <stop offset="1" stop-color="#558CEF"/>
        </linearGradient>
    </defs>
</svg>
