<svg width="40" height="40" viewBox="0 0 40 40" fill="none" xmlns="http://www.w3.org/2000/svg">
    <path d="M27.2673 23.334C27.4007 22.234 27.5007 21.134 27.5007 20.0007C27.5007 18.8673 27.4007 17.7673 27.2673 16.6673H32.9007C33.1673 17.734 33.334 18.8507 33.334 20.0007C33.334 21.1507 33.1673 22.2673 32.9007 23.334H27.2673ZM24.3173 32.6007C25.3173 30.7507 26.084 28.7507 26.6173 26.6673H31.534C29.9193 29.4478 27.3575 31.554 24.3173 32.6007ZM23.9007 23.334H16.1007C15.934 22.234 15.834 21.134 15.834 20.0007C15.834 18.8673 15.934 17.7507 16.1007 16.6673H23.9007C24.0507 17.7507 24.1673 18.8673 24.1673 20.0007C24.1673 21.134 24.0507 22.234 23.9007 23.334ZM20.0007 33.2673C18.6173 31.2673 17.5007 29.0507 16.8173 26.6673H23.184C22.5007 29.0507 21.384 31.2673 20.0007 33.2673ZM13.334 13.334H8.46732C10.0654 10.546 12.6253 8.43646 15.6673 7.40065C14.6673 9.25065 13.9173 11.2507 13.334 13.334ZM8.46732 26.6673H13.334C13.9173 28.7507 14.6673 30.7507 15.6673 32.6007C12.6317 31.5534 10.0754 29.4468 8.46732 26.6673ZM7.10065 23.334C6.83398 22.2673 6.66732 21.1507 6.66732 20.0007C6.66732 18.8507 6.83398 17.734 7.10065 16.6673H12.734C12.6007 17.7673 12.5007 18.8673 12.5007 20.0007C12.5007 21.134 12.6007 22.234 12.734 23.334H7.10065ZM20.0007 6.71732C21.384 8.71732 22.5007 10.9507 23.184 13.334H16.8173C17.5007 10.9507 18.6173 8.71732 20.0007 6.71732ZM31.534 13.334H26.6173C26.0957 11.2697 25.3233 9.27714 24.3173 7.40065C27.384 8.45065 29.934 10.5673 31.534 13.334ZM20.0007 3.33398C10.784 3.33398 3.33398 10.834 3.33398 20.0007C3.33398 24.4209 5.08993 28.6602 8.21554 31.7858C9.76318 33.3334 11.6005 34.5611 13.6226 35.3986C15.6447 36.2362 17.812 36.6673 20.0007 36.6673C24.4209 36.6673 28.6602 34.9114 31.7858 31.7858C34.9114 28.6602 36.6673 24.4209 36.6673 20.0007C36.6673 17.812 36.2362 15.6447 35.3986 13.6226C34.5611 11.6005 33.3334 9.76318 31.7858 8.21554C30.2381 6.6679 28.4008 5.44024 26.3787 4.60266C24.3566 3.76508 22.1894 3.33398 20.0007 3.33398Z"
          fill="url(#paint0_linear_62_566)"/>
    <defs>
        <linearGradient id="paint0_linear_62_566" x1="3.33398" y1="20.1764" x2="38.1842" y2="20.1716"
                        gradientUnits="userSpaceOnUse">
            <stop offset="0.00394562" stop-color="#F44554"/>
            <stop offset="1" stop-color="#3271E1"/>
        </linearGradient>
    </defs>
</svg>
