<svg width="40" height="40" viewBox="0 0 40 40" fill="none" xmlns="http://www.w3.org/2000/svg">
    <path d="M20.9038 8H21.0818C22.7259 8.006 31.0564 8.066 33.3026 8.67004C33.9816 8.85439 34.6003 9.21372 35.097 9.71212C35.5936 10.2105 35.9508 10.8305 36.1327 11.5102C36.3348 12.2703 36.4768 13.2763 36.5728 14.3144L36.5928 14.5224L36.6368 15.0424L36.6528 15.2505C36.7828 17.0786 36.7988 18.7907 36.8008 19.1647V19.3147C36.7988 19.7027 36.7808 21.5308 36.6368 23.435L36.6208 23.645L36.6028 23.853C36.5028 24.9971 36.3548 26.1331 36.1327 26.9692C35.9513 27.6491 35.5944 28.2694 35.0977 28.7679C34.6009 29.2664 33.9819 29.6256 33.3026 29.8094C30.9824 30.4334 22.1639 30.4774 20.9418 30.4794H20.6578C20.0397 30.4794 17.4836 30.4674 14.8034 30.3754L14.4634 30.3634L14.2894 30.3554L13.9474 30.3414L13.6053 30.3274C11.3852 30.2294 9.27106 30.0714 8.297 29.8074C7.61794 29.6237 6.99905 29.2649 6.50234 28.7668C6.00562 28.2687 5.64853 27.6488 5.46682 26.9692C5.24481 26.1351 5.0968 24.9971 4.99679 23.853L4.98079 23.643L4.96479 23.435C4.86608 22.0797 4.81138 20.7215 4.80078 19.3627L4.80078 19.1167C4.80478 18.6867 4.82078 17.2006 4.92879 15.5605L4.94279 15.3545L4.94879 15.2505L4.96479 15.0424L5.00879 14.5224L5.0288 14.3144C5.1248 13.2763 5.26681 12.2683 5.46882 11.5102C5.65022 10.8303 6.00718 10.21 6.50391 9.71147C7.00065 9.21298 7.6197 8.85384 8.299 8.67004C9.27306 8.41003 11.3872 8.25002 13.6073 8.15001L13.9474 8.13601L14.2914 8.12401L14.4634 8.11801L14.8054 8.10401C16.7089 8.04275 18.6133 8.00875 20.5178 8.002H20.9038V8ZM17.6016 14.4204V24.057L25.9161 19.2407L17.6016 14.4204Z"
          fill="url(#paint0_linear_62_567)"/>
    <defs>
        <linearGradient id="paint0_linear_62_567" x1="4.80078" y1="19.3582" x2="38.257" y2="19.3517"
                        gradientUnits="userSpaceOnUse">
            <stop offset="0.00394562" stop-color="#F44554"/>
            <stop offset="1" stop-color="#3271E1"/>
        </linearGradient>
    </defs>
</svg>
