<svg width="25" height="25" viewBox="0 0 25 25" fill="none" xmlns="http://www.w3.org/2000/svg">
    <path d="M12.5 0C5.625 0 0 5.625 0 12.5C0 19.375 5.625 25 12.5 25C19.375 25 25 19.375 25 12.5C25 5.625 19.375 0 12.5 0ZM8.0375 15.55L6.3375 14.7875C6.6875 14.0875 6.875 13.3375 6.875 12.5625C6.875 11.7375 6.6875 10.95 6.3375 10.2125L8.0375 9.45C8.5125 10.4625 8.75 11.5 8.75 12.5625C8.75 13.5 8.5125 14.5 8.0375 15.55ZM11.9125 17.425L10.275 16.6125C10.9375 15.2 11.25 13.75 11.25 12.325C11.25 10.9125 10.9375 9.6125 10.275 8.3875L11.9125 7.45C12.7375 8.9 13.125 10.525 13.125 12.325C13.125 14.1625 12.7375 15.8625 11.9125 17.425ZM15.85 19.1875L14.1375 18.3125C15.125 16.3875 15.625 14.4625 15.625 12.5C15.625 10.5375 15.125 8.5875 14.1375 6.6375L15.85 5.8125C16.9375 8.0375 17.5 10.275 17.5 12.5C17.5 14.775 16.9375 17 15.85 19.1875Z"
          fill="url(#paint0_linear_125_641)"/>
    <defs>
        <linearGradient id="paint0_linear_125_641" x1="-3.80759e-08" y1="12.6318" x2="26.1376" y2="12.6282"
                        gradientUnits="userSpaceOnUse">
            <stop offset="0.00394562" stop-color="#F44554"/>
            <stop offset="1" stop-color="#3271E1"/>
        </linearGradient>
    </defs>
</svg>
