<svg width="33" height="31" viewBox="0 0 33 31" fill="none" xmlns="http://www.w3.org/2000/svg">
<path fill-rule="evenodd" clip-rule="evenodd" d="M16.4996 0.285156C7.88479 0.285156 0.900391 7.26996 0.900391 15.886C0.900391 22.7784 5.36919 28.6256 11.5688 30.6872C12.3496 30.8316 12.6336 30.3512 12.6336 29.9364C12.6336 29.5668 12.62 28.5864 12.6132 27.2832C8.27359 28.2268 7.35799 25.1916 7.35799 25.1916C6.64839 23.3896 5.62559 22.9104 5.62559 22.9104C4.20919 21.9432 5.73319 21.962 5.73319 21.962C7.29879 22.0728 8.12279 23.5692 8.12279 23.5692C9.51399 25.9532 11.7744 25.2632 12.6628 24.8664C12.804 23.8564 13.208 23.1704 13.6532 22.7796C10.1896 22.386 6.54799 21.0476 6.54799 15.07C6.54799 13.3664 7.15559 11.9736 8.15319 10.8828C7.99359 10.49 7.45719 8.90396 8.30639 6.75516C8.30639 6.75516 9.61599 6.33596 12.5968 8.35556C13.8404 8.00796 15.1752 7.83436 16.502 7.82916C17.8268 7.83476 19.162 8.00796 20.4072 8.35556C23.386 6.33596 24.6936 6.75516 24.6936 6.75516C25.5448 8.90396 25.0088 10.49 24.8488 10.8828C25.8488 11.9736 26.452 13.3664 26.452 15.07C26.452 21.0616 22.8052 22.3816 19.33 22.7664C19.8892 23.2484 20.3884 24.2024 20.3884 25.658C20.3884 27.7424 20.3696 29.4244 20.3696 29.936C20.3696 30.354 20.65 30.84 21.442 30.6852C27.6348 28.6192 32.1004 22.7764 32.1004 15.886C32.1004 7.26996 25.116 0.285156 16.4996 0.285156V0.285156Z" fill="url(#paint0_linear_189_598)"/>
<defs>
<linearGradient id="paint0_linear_189_598" x1="0.900391" y1="15.6603" x2="33.5202" y2="15.6557" gradientUnits="userSpaceOnUse">
<stop offset="0.00394562" stop-color="#F44554"/>
<stop offset="1" stop-color="#3271E1"/>
</linearGradient>
</defs>
</svg>
