<svg width="285" height="81" viewBox="0 0 285 81" fill="none" xmlns="http://www.w3.org/2000/svg">
    <g clip-path="url(#clip0_14_874)">
        <path d="M27.2602 60.465L26.3789 60.9774L26.3796 59.9512C26.3796 59.9512 26.3673 60.476 26.6021 60.6071C26.832 60.7358 27.2602 60.465 27.2602 60.465Z"
              fill="#8E3315"/>
        <path d="M4.64844 59.4049C9.61502 68.8822 18.1094 75.9793 28.2629 79.1366C38.4165 82.2942 49.3975 81.2529 58.7903 76.2408C68.183 71.2288 75.2179 62.6569 78.3481 52.4114C81.4774 42.1656 80.4241 31.0849 75.4577 21.6074C79.9364 35.8503 64.344 40.8542 64.344 40.8542L45.4728 50.8069L25.8601 61.1292C25.8601 61.1292 12.4931 69.8127 4.64844 59.4049Z"
              fill="#473ADE"/>
        <path d="M4.57812 59.4738C9.54467 68.9511 18.0391 76.0493 28.1926 79.2069C38.3459 82.3645 49.3269 81.3228 58.7197 76.3108C68.1127 71.2988 75.1476 62.7268 78.2772 52.4814C81.4071 42.2355 80.3749 31.1553 75.4085 21.6777C79.8875 35.9206 64.2734 40.9241 64.2734 40.9241L45.4022 50.8768L25.7897 61.1992C25.7897 61.1992 12.4228 69.8816 4.57812 59.4738Z"
              fill="url(#paint0_linear_14_874)"/>
        <path d="M64.4426 40.1328L65.2469 40.5711L64.1035 40.9891C64.1035 40.9891 64.6912 40.7842 64.7749 40.5581C64.8575 40.337 64.4426 40.1328 64.4426 40.1328Z"
              fill="#251E73"/>
        <path d="M75.701 58.9823C80.5511 49.4432 81.4469 38.351 78.1915 28.1452C74.9365 17.9393 67.7969 9.45621 58.3436 4.56178C48.8899 -0.332639 37.897 -1.2373 27.7828 2.04677C17.6687 5.33083 9.26208 12.5347 4.41211 22.0734C13.4119 10.2069 26.4238 20.2503 26.4238 20.2503L45.322 30.1512L64.9448 40.4533C64.9448 40.4533 79.6567 46.5307 75.701 58.9823Z"
              fill="#D71D6A"/>
        <path d="M75.6057 58.9435C80.4415 49.4329 81.3346 38.3737 78.0894 28.1984C74.8435 18.023 67.7253 9.56504 58.2999 4.68524C48.8749 -0.194636 37.9146 -1.09657 27.8304 2.17766C17.7465 5.45203 9.36484 12.6344 4.5293 22.1448C13.5022 10.3135 26.4754 20.327 26.4754 20.327L45.3175 30.1983L64.8821 40.4697C64.8821 40.4697 79.5494 46.5289 75.6057 58.9435Z"
              fill="url(#paint1_linear_14_874)"/>
        <path d="M26.3876 21.2075L26.3711 20.1328L27.3017 20.6557C27.3017 20.6557 26.8319 20.3773 26.5934 20.5273C26.3598 20.6742 26.3876 21.2075 26.3876 21.2075Z"
              fill="#741039"/>
        <path d="M40.0595 0.0957031C29.435 0.0957031 19.2457 4.35492 11.7331 11.9363C4.22052 19.5177 0 29.8004 0 40.5221C0 51.244 4.22052 61.5265 11.7331 69.1082C19.2457 76.6896 29.435 80.949 40.0595 80.949C26.4238 78.6384 26.4238 60.8119 26.4238 60.8119V40.5221V19.8737C26.4238 19.8737 26.4238 2.55848 40.0595 0.0957031Z"
              fill="#FF5B25"/>
        <path d="M40.0595 0C29.435 0 19.2457 4.25923 11.7331 11.8407C4.22052 19.4221 0 29.7047 0 40.4266C0 51.1484 4.22052 61.431 11.7331 69.0124C19.2457 76.5938 29.435 80.8531 40.0595 80.8531C26.4238 76.4568 26.4238 60.8327 26.4238 60.8327V40.4763V20.25C26.4238 20.25 25.9277 2.61969 40.0595 0Z"
              fill="url(#paint2_linear_14_874)"/>
        <path d="M39.9558 80.9286C26.4253 74.7095 26.4412 60.8258 26.4412 60.8258C26.4412 60.8258 9.67111 70.3722 4.02539 58.1621C4.02539 58.1621 13.4895 81.0096 39.9558 80.9286Z"
              fill="#473ADE"/>
        <path d="M111.099 29.7845C109.76 29.7845 108.589 30.0702 107.585 30.6416C106.582 31.213 105.732 31.9923 105.037 32.9793C104.368 33.9663 103.854 35.1092 103.493 36.4079C103.159 37.7067 102.991 39.0703 102.991 40.4988C102.991 41.8494 103.159 43.1742 103.493 44.4729C103.854 45.7456 104.368 46.8885 105.037 47.9014C105.732 48.8885 106.582 49.6937 107.585 50.3169C108.589 50.9145 109.76 51.2131 111.099 51.2131C112.154 51.2131 113.17 50.9794 114.149 50.5119C115.127 50.0183 115.989 49.3168 116.735 48.408C117.481 47.4988 118.074 46.3819 118.511 45.0571C118.974 43.7326 119.206 42.2132 119.206 40.4988C119.206 38.9663 119.013 37.5509 118.627 36.2521C118.266 34.9273 117.739 33.7974 117.044 32.8624C116.349 31.9014 115.5 31.1481 114.496 30.6027C113.492 30.0572 112.36 29.7845 111.099 29.7845ZM111.099 55.226C108.859 55.226 106.878 54.8495 105.153 54.0961C103.429 53.3428 101.962 52.3169 100.752 51.0181C99.5683 49.6937 98.6674 48.1351 98.0498 46.3428C97.4319 44.5508 97.123 42.6027 97.123 40.4988C97.123 38.4728 97.4319 36.5638 98.0498 34.7715C98.6929 32.9793 99.6068 31.4209 100.791 30.0962C102 28.7455 103.468 27.6936 105.192 26.9403C106.916 26.1611 108.885 25.7715 111.099 25.7715C113.621 25.7715 115.757 26.213 117.507 27.0962C119.283 27.9793 120.724 29.1351 121.831 30.5637C122.963 31.9663 123.774 33.5507 124.263 35.3168C124.778 37.0573 125.035 38.7844 125.035 40.4988C125.035 42.4208 124.727 44.2649 124.109 46.0312C123.491 47.7974 122.59 49.369 121.407 50.7456C120.248 52.0962 118.794 53.187 117.044 54.0182C115.32 54.8234 113.338 55.226 111.099 55.226Z"
              fill="white"/>
        <path d="M131.486 26.3574H138.474L144.612 48.2144L144.882 49.6171L145.191 48.2144L151.291 26.3574H158.317L160.942 54.682H155.885L154.379 33.3314L154.264 31.4613L153.8 33.3314L147.7 54.2925H142.025L135.848 33.2925L135.385 31.4613L135.269 33.2925L133.841 54.682H128.783L131.486 26.3574Z"
              fill="white"/>
        <path d="M172.733 34.8507L172.115 33.4483L172.192 34.7728V54.682H167.482V26.3574H172.81L184.662 45.4092L185.202 46.9678L185.125 45.4092V26.3574H189.99V54.682H185.125L172.733 34.8507Z"
              fill="white"/>
        <path d="M202.474 54.682H197.107V26.3574H202.474V54.682Z" fill="white"/>
        <path d="M208.904 26.3574H225.737V30.3704H214.425V54.682H208.904V26.3574ZM215.892 41.7859C216.02 41.3702 216.188 40.9288 216.394 40.461C216.6 39.9936 216.857 39.5652 217.166 39.1753C217.475 38.7858 217.835 38.4741 218.247 38.2404C218.684 37.9806 219.186 37.8508 219.753 37.8508H224.424V41.7859H215.892Z"
              fill="white"/>
        <path d="M231.416 26.3574H236.975V50.63H247.09V54.682H231.416V26.3574Z" fill="white"/>
        <path d="M257.329 54.682H251.963V26.3574H257.329V54.682Z" fill="white"/>
        <path d="M262.104 26.3574H268.204L272.952 35.669L273.338 36.8768L273.648 35.669L278.396 26.3574H284.457L276.08 40.3443L284.882 54.682H278.898L262.104 26.3574ZM267.586 54.682H261.68L269.324 42.0196C269.555 42.3573 269.825 42.7987 270.134 43.3444C270.443 43.8898 270.688 44.487 270.868 45.1364C271.074 45.76 271.177 46.4221 271.177 47.1236C271.202 47.7987 271.048 48.4351 270.713 49.0326L267.586 54.682Z"
              fill="white"/>
    </g>
    <defs>
        <linearGradient id="paint0_linear_14_874" x1="75.4122" y1="35.911" x2="16.6032" y2="93.4519"
                        gradientUnits="userSpaceOnUse">
            <stop stop-opacity="0.6"/>
            <stop offset="0.655513" stop-opacity="0"/>
        </linearGradient>
        <linearGradient id="paint1_linear_14_874" x1="16.0518" y1="14.0089" x2="96.4251" y2="28.6216"
                        gradientUnits="userSpaceOnUse">
            <stop stop-opacity="0.6"/>
            <stop offset="0.645833" stop-opacity="0"/>
        </linearGradient>
        <linearGradient id="paint2_linear_14_874" x1="21.453" y1="75.8455" x2="-2.77137" y2="1.9043"
                        gradientUnits="userSpaceOnUse">
            <stop stop-opacity="0.6"/>
            <stop offset="0.675464" stop-opacity="0"/>
        </linearGradient>
        <clipPath id="clip0_14_874">
            <rect width="285" height="81" fill="white"/>
        </clipPath>
    </defs>
</svg>
